<?xml version="1.0" encoding="UTF-8"?><svg id="Layer_1" xmlns="http://www.w3.org/2000/svg" viewBox="0 0 1500 1500"><path d="M434.63,999.25c-80.15-82.14-160.61-163.97-240.32-246.52-46.07-47.71-45.83-96.46,1.23-143.62,91.46-91.65,182.79-183.45,275.22-274.14,44.64-43.81,95.76-42.86,138.99-1.85,96.01,91.08,189.33,185.05,281.68,279.84,39.61,40.65,41.86,90.53,3.9,132.27-79.58,87.5-163.12,171.43-245.09,256.78-11.16-4.5-11.83-4.77-22.99-9.26v-319.36s-168.16,0-168.16,0v315.51c-8.15,3.45-16.3,6.9-24.46,10.35ZM464.49,440.96v142.89h155.54v-142.89h-155.54Z" fill="#c50000"/><text transform="translate(875.54 1010.82) scale(.92 1)" font-family="ZELDA-Fill, ZELDA" font-size="402.11"><tspan x="0" y="0">AR</tspan></text><text transform="translate(658.41 1118.91) scale(1.07 1)" fill="#c50000" font-family="OpenSans, &apos;Open Sans&apos;" font-size="115"><tspan x="0" y="0">SOLUTIONS</tspan></text><polygon points="659.72 669 788 669 788 728.41 741.41 728.41 741.41 769 659.72 769 659.72 669" fill="#fff"/><polygon points="871.5 825.34 871.5 873.5 794.5 873.5 794.5 1000.5 728.5 1000.5 728.5 785 794.5 785 794.5 825.34 871.5 825.34"/><rect x="800" y="720" width="152" height="48"/></svg>